<svg xmlns="http://www.w3.org/2000/svg" xmlns:xlink="http://www.w3.org/1999/xlink" width="146.428" height="32" viewBox="0 0 146.428 32">
  <defs>
    <clipPath id="clip-path">
      <path id="Path_314" data-name="Path 314" d="M41.73,116.34v29.471a2.538,2.538,0,0,0,2.529,2.529H76.252a2.538,2.538,0,0,0,2.529-2.529V116.34Zm22.735,6.735H56.046a1.684,1.684,0,1,1,0-3.368h8.419a1.684,1.684,0,1,1,0,3.368Z" transform="translate(-41.73 -116.34)"/>
    </clipPath>
    <clipPath id="clip-path-4">
      <circle id="Ellipse_16" data-name="Ellipse 16" cx="16" cy="16" r="16"/>
    </clipPath>
    <radialGradient id="radial-gradient" cx="-0.003" cy="-0.004" r="1.497" gradientUnits="objectBoundingBox">
      <stop offset="0" stop-color="#fff" stop-opacity="0.102"/>
      <stop offset="1" stop-color="#fff" stop-opacity="0"/>
    </radialGradient>
  </defs>
  <g id="Chrome-store" transform="translate(-41.73 -116.34)">
    <g id="Group_184" data-name="Group 184" transform="translate(87.268 121.926)">
      <g id="Group_182" data-name="Group 182" transform="translate(0 11.53)">
        <path id="Path_285" data-name="Path 285" d="M113.7,150.955a4.653,4.653,0,1,1,0-9.305,4.127,4.127,0,0,1,3.273,1.454l-.8.771a3,3,0,0,0-2.475-1.129,3.361,3.361,0,0,0-2.455.981,3.817,3.817,0,0,0,0,5.153,3.372,3.372,0,0,0,2.455.981,3.53,3.53,0,0,0,2.739-1.292l.8.8a4.377,4.377,0,0,1-1.528,1.163A4.734,4.734,0,0,1,113.7,150.955Z" transform="translate(-109.07 -141.65)" fill="#606469"/>
        <path id="Path_286" data-name="Path 286" d="M123.793,141.95v2.813l-.047.845h.047a2.024,2.024,0,0,1,.784-.737,2.278,2.278,0,0,1,1.143-.3,2.147,2.147,0,0,1,1.731.7,2.773,2.773,0,0,1,.6,1.866v3.733H126.9v-3.557c0-1.129-.5-1.691-1.508-1.691a1.4,1.4,0,0,0-1.156.568,2.055,2.055,0,0,0-.446,1.312v3.368H122.65v-8.906h1.143Z" transform="translate(-113.467 -141.747)" fill="#606469"/>
        <path id="Path_287" data-name="Path 287" d="M133.763,152.122H132.62v-6.093h1.1v.994h.047a1.516,1.516,0,0,1,.717-.818,2.031,2.031,0,0,1,1.048-.325,2.148,2.148,0,0,1,.859.149l-.433,1.068a1.656,1.656,0,0,0-.609-.088,1.488,1.488,0,0,0-1.1.494,1.767,1.767,0,0,0-.48,1.285Z" transform="translate(-116.694 -143.019)" fill="#606469"/>
        <path id="Path_288" data-name="Path 288" d="M139.106,146.736a3.2,3.2,0,0,1,4.5,0,3.48,3.48,0,0,1,0,4.639,3.2,3.2,0,0,1-4.5,0,3.48,3.48,0,0,1,0-4.639Zm.852,3.915a1.929,1.929,0,0,0,2.8,0,2.459,2.459,0,0,0,0-3.192,1.929,1.929,0,0,0-2.8,0,2.459,2.459,0,0,0,0,3.192Z" transform="translate(-118.507 -142.997)" fill="#606469"/>
        <path id="Path_289" data-name="Path 289" d="M148.85,152.1v-6.093h1.1v.845h.047a2.09,2.09,0,0,1,.8-.737,2.166,2.166,0,0,1,1.075-.3,1.91,1.91,0,0,1,1.927,1.17,2.387,2.387,0,0,1,2.13-1.17,1.953,1.953,0,0,1,1.63.69,2.927,2.927,0,0,1,.548,1.873v3.733h-1.143v-3.557a1.989,1.989,0,0,0-.338-1.305,1.277,1.277,0,0,0-1.021-.385,1.355,1.355,0,0,0-1.116.575,2.057,2.057,0,0,0-.44,1.305v3.368h-1.143v-3.557a1.989,1.989,0,0,0-.338-1.305,1.277,1.277,0,0,0-1.021-.385,1.355,1.355,0,0,0-1.116.575,2.057,2.057,0,0,0-.44,1.305v3.368H148.85Z" transform="translate(-121.949 -142.997)" fill="#606469"/>
        <path id="Path_290" data-name="Path 290" d="M167.121,152.3a2.932,2.932,0,0,1-2.245-.92,3.269,3.269,0,0,1-.866-2.326,3.337,3.337,0,0,1,.839-2.286,2.743,2.743,0,0,1,2.144-.96,2.809,2.809,0,0,1,2.171.886,3.358,3.358,0,0,1,.811,2.36l-.014.21h-4.815a2.063,2.063,0,0,0,.615,1.454,1.861,1.861,0,0,0,1.325.534,1.637,1.637,0,0,0,1.664-1.048l1.021.426a2.759,2.759,0,0,1-.981,1.19A2.818,2.818,0,0,1,167.121,152.3Zm1.643-3.983a1.6,1.6,0,0,0-.48-.994,1.693,1.693,0,0,0-1.312-.473,1.649,1.649,0,0,0-1.1.4,2.023,2.023,0,0,0-.642,1.068Z" transform="translate(-126.857 -142.997)" fill="#606469"/>
        <path id="Path_291" data-name="Path 291" d="M188.033,141.95l-2.374,8.906h-1.17l-1.914-5.87h-.047l-1.914,5.87h-1.17l-2.475-8.906h1.2l1.88,7.006h.047l1.927-5.809h1.068l1.927,5.809h.047l1.779-7.006Z" transform="translate(-131.053 -141.747)" fill="#606469"/>
        <path id="Path_292" data-name="Path 292" d="M196.231,152.3a2.932,2.932,0,0,1-2.245-.92,3.269,3.269,0,0,1-.866-2.326,3.337,3.337,0,0,1,.839-2.286,2.743,2.743,0,0,1,2.144-.96,2.809,2.809,0,0,1,2.171.886,3.358,3.358,0,0,1,.811,2.36l-.014.21h-4.815a2.063,2.063,0,0,0,.615,1.454,1.86,1.86,0,0,0,1.325.534,1.637,1.637,0,0,0,1.664-1.048l1.021.426a2.759,2.759,0,0,1-.981,1.19A2.818,2.818,0,0,1,196.231,152.3Zm1.643-3.983a1.6,1.6,0,0,0-.48-.994,1.693,1.693,0,0,0-1.312-.473,1.649,1.649,0,0,0-1.1.4,2.023,2.023,0,0,0-.642,1.068Z" transform="translate(-136.281 -142.997)" fill="#606469"/>
        <path id="Path_293" data-name="Path 293" d="M206.719,151.052a2.63,2.63,0,0,1-1.251-.3,2.068,2.068,0,0,1-.825-.744H204.6v.845h-1.1V141.95h1.143v2.813l-.047.845h.047a2.115,2.115,0,0,1,.825-.744,2.63,2.63,0,0,1,1.251-.3,2.7,2.7,0,0,1,2.042.933,3.543,3.543,0,0,1,0,4.626A2.7,2.7,0,0,1,206.719,151.052ZM206.536,150a1.827,1.827,0,0,0,1.366-.6,2.23,2.23,0,0,0,.575-1.6,2.2,2.2,0,0,0-.575-1.6,1.866,1.866,0,0,0-2.739-.007,2.545,2.545,0,0,0,0,3.205A1.8,1.8,0,0,0,206.536,150Z" transform="translate(-139.642 -141.747)" fill="#606469"/>
        <path id="Path_294" data-name="Path 294" d="M220.114,150.955a3.28,3.28,0,0,1-1.893-.636,2.945,2.945,0,0,1-1.21-1.779l1.048-.426a2.387,2.387,0,0,0,.764,1.238,1.911,1.911,0,0,0,1.3.5,2.081,2.081,0,0,0,1.278-.392,1.257,1.257,0,0,0,.527-1.062,1.36,1.36,0,0,0-.527-1.15,5.422,5.422,0,0,0-1.67-.751,4.419,4.419,0,0,1-1.792-.967,2.013,2.013,0,0,1-.609-1.508,2.194,2.194,0,0,1,.757-1.664,2.774,2.774,0,0,1,1.975-.71,2.846,2.846,0,0,1,1.839.568,2.633,2.633,0,0,1,.92,1.238l-1.048.433a1.526,1.526,0,0,0-.555-.784,1.72,1.72,0,0,0-1.136-.358,1.762,1.762,0,0,0-1.123.365,1.116,1.116,0,0,0-.467.913,1.041,1.041,0,0,0,.426.839,4.07,4.07,0,0,0,1.265.615,10.565,10.565,0,0,1,1.1.413,5.4,5.4,0,0,1,.893.527,2.146,2.146,0,0,1,.683.818,2.623,2.623,0,0,1,.23,1.136,2.393,2.393,0,0,1-.271,1.156,2.179,2.179,0,0,1-.71.811,3.531,3.531,0,0,1-.954.453A3.418,3.418,0,0,1,220.114,150.955Z" transform="translate(-144.016 -141.65)" fill="#606469"/>
        <path id="Path_295" data-name="Path 295" d="M229.75,151.4a1.977,1.977,0,0,1-1.461-.507,1.946,1.946,0,0,1-.5-1.44v-3.2H226.72v-1.041h1.068V143.35h1.143v1.866h1.495v1.041h-1.495v3.111c0,.663.27.994.818.994a1.191,1.191,0,0,0,.521-.1l.4.981A2.308,2.308,0,0,1,229.75,151.4Z" transform="translate(-147.16 -142.2)" fill="#606469"/>
        <path id="Path_296" data-name="Path 296" d="M234.086,146.736a3.2,3.2,0,0,1,4.5,0,3.48,3.48,0,0,1,0,4.639,3.2,3.2,0,0,1-4.5,0,3.48,3.48,0,0,1,0-4.639Zm.852,3.915a1.929,1.929,0,0,0,2.8,0,2.459,2.459,0,0,0,0-3.192,1.929,1.929,0,0,0-2.8,0,2.459,2.459,0,0,0,0,3.192Z" transform="translate(-149.257 -142.997)" fill="#606469"/>
        <path id="Path_297" data-name="Path 297" d="M244.983,152.122H243.84v-6.093h1.1v.994h.047a1.516,1.516,0,0,1,.717-.818,2.031,2.031,0,0,1,1.048-.325,2.148,2.148,0,0,1,.859.149l-.433,1.068a1.656,1.656,0,0,0-.609-.088,1.488,1.488,0,0,0-1.1.494,1.767,1.767,0,0,0-.48,1.285Z" transform="translate(-152.702 -143.019)" fill="#606469"/>
        <path id="Path_298" data-name="Path 298" d="M252.551,152.3a2.932,2.932,0,0,1-2.245-.92,3.27,3.27,0,0,1-.866-2.326,3.337,3.337,0,0,1,.839-2.286,2.743,2.743,0,0,1,2.144-.96,2.809,2.809,0,0,1,2.171.886,3.358,3.358,0,0,1,.811,2.36l-.014.21h-4.815a2.063,2.063,0,0,0,.615,1.454,1.86,1.86,0,0,0,1.325.534,1.637,1.637,0,0,0,1.664-1.048l1.021.426a2.76,2.76,0,0,1-.981,1.19A2.818,2.818,0,0,1,252.551,152.3Zm1.643-3.983a1.6,1.6,0,0,0-.48-.994,1.693,1.693,0,0,0-1.312-.473,1.649,1.649,0,0,0-1.1.4,2.023,2.023,0,0,0-.642,1.068Z" transform="translate(-154.515 -142.997)" fill="#606469"/>
      </g>
      <g id="Group_183" data-name="Group 183" transform="translate(0.663)">
        <path id="Path_299" data-name="Path 299" d="M110.05,131.442l2.543-6.742h.981l2.543,6.742h-.96l-.649-1.826h-2.833l-.656,1.826Zm1.914-2.637H114.2l-1.1-3.043h-.041Z" transform="translate(-110.05 -124.632)" fill="#606469"/>
        <path id="Path_300" data-name="Path 300" d="M120.406,132.462l-1.866-4.612h.94l1.352,3.577h.02l1.373-3.577h.92l-1.88,4.612Z" transform="translate(-112.799 -125.652)" fill="#606469"/>
        <path id="Path_301" data-name="Path 301" d="M127.384,132.536a1.829,1.829,0,0,1-1.231-.426,1.508,1.508,0,0,1,.088-2.306,2.376,2.376,0,0,1,1.44-.426,2.465,2.465,0,0,1,1.251.284v-.135a1.029,1.029,0,0,0-.345-.811,1.259,1.259,0,0,0-.859-.3,1.369,1.369,0,0,0-.683.176.943.943,0,0,0-.419.487l-.791-.338a1.775,1.775,0,0,1,.629-.764,2.012,2.012,0,0,1,1.244-.352,2.128,2.128,0,0,1,1.467.521,1.838,1.838,0,0,1,.582,1.461v2.786h-.832v-.642h-.041A1.654,1.654,0,0,1,127.384,132.536Zm.142-.791a1.419,1.419,0,0,0,.974-.4,1.242,1.242,0,0,0,.44-.947,1.688,1.688,0,0,0-1.1-.3,1.445,1.445,0,0,0-.954.271.806.806,0,0,0-.318.642.608.608,0,0,0,.291.534A1.151,1.151,0,0,0,127.526,131.745Z" transform="translate(-115.104 -125.578)" fill="#606469"/>
        <path id="Path_302" data-name="Path 302" d="M134.071,125.641a.582.582,0,0,1-.433.176.608.608,0,0,1-.433-.176.582.582,0,0,1-.176-.433.608.608,0,0,1,.176-.433.581.581,0,0,1,.433-.176.608.608,0,0,1,.433.176.621.621,0,0,1,0,.866Zm0,5.768h-.866V126.8h.866Z" transform="translate(-117.49 -124.6)" fill="#606469"/>
        <path id="Path_303" data-name="Path 303" d="M137.116,131.442h-.866V124.7h.866Z" transform="translate(-118.532 -124.632)" fill="#606469"/>
        <path id="Path_304" data-name="Path 304" d="M140.344,132.536a1.829,1.829,0,0,1-1.231-.426,1.508,1.508,0,0,1,.088-2.306,2.376,2.376,0,0,1,1.44-.426,2.465,2.465,0,0,1,1.251.284v-.135a1.029,1.029,0,0,0-.345-.811,1.259,1.259,0,0,0-.859-.3,1.369,1.369,0,0,0-.683.176.943.943,0,0,0-.419.487l-.791-.338a1.775,1.775,0,0,1,.629-.764,2.012,2.012,0,0,1,1.244-.352,2.128,2.128,0,0,1,1.467.521,1.838,1.838,0,0,1,.582,1.461v2.786h-.832v-.642h-.041A1.654,1.654,0,0,1,140.344,132.536Zm.142-.791a1.418,1.418,0,0,0,.974-.4,1.242,1.242,0,0,0,.44-.947,1.688,1.688,0,0,0-1.1-.3,1.445,1.445,0,0,0-.954.271.806.806,0,0,0-.318.642.608.608,0,0,0,.291.534A1.151,1.151,0,0,0,140.486,131.745Z" transform="translate(-119.3 -125.578)" fill="#606469"/>
        <path id="Path_305" data-name="Path 305" d="M148.578,131.591a1.977,1.977,0,0,1-.947-.223A1.612,1.612,0,0,1,147,130.8h-.041v.642h-.832V124.7H147v2.13l-.041.642H147a1.557,1.557,0,0,1,.629-.561,1.977,1.977,0,0,1,.947-.223,2.038,2.038,0,0,1,1.542.7,2.687,2.687,0,0,1,0,3.5A2.03,2.03,0,0,1,148.578,131.591Zm-.142-.791a1.38,1.38,0,0,0,1.035-.453,1.909,1.909,0,0,0,0-2.421,1.408,1.408,0,0,0-2.076-.007,1.952,1.952,0,0,0,0,2.434A1.381,1.381,0,0,0,148.436,130.8Z" transform="translate(-121.731 -124.632)" fill="#606469"/>
        <path id="Path_306" data-name="Path 306" d="M154.956,131.442h-.866V124.7h.866Z" transform="translate(-124.308 -124.632)" fill="#606469"/>
        <path id="Path_307" data-name="Path 307" d="M158.823,132.54a2.208,2.208,0,0,1-1.7-.7,2.454,2.454,0,0,1-.656-1.758,2.524,2.524,0,0,1,.636-1.731,2.078,2.078,0,0,1,1.623-.724,2.131,2.131,0,0,1,1.643.669,2.525,2.525,0,0,1,.615,1.785l-.007.162h-3.645a1.58,1.58,0,0,0,.467,1.1,1.412,1.412,0,0,0,1,.406,1.249,1.249,0,0,0,1.265-.791l.771.318a2.065,2.065,0,0,1-.744.9A2.2,2.2,0,0,1,158.823,132.54Zm1.244-3.009a1.228,1.228,0,0,0-.365-.751,1.3,1.3,0,0,0-.994-.358,1.238,1.238,0,0,0-.832.3,1.55,1.55,0,0,0-.487.811h2.678Z" transform="translate(-125.079 -125.581)" fill="#606469"/>
        <path id="Path_308" data-name="Path 308" d="M168.271,125.641a.582.582,0,0,1-.433.176.608.608,0,0,1-.433-.176.582.582,0,0,1-.176-.433.608.608,0,0,1,.176-.433.582.582,0,0,1,.433-.176.608.608,0,0,1,.433.176.621.621,0,0,1,0,.866Zm0,5.768h-.866V126.8h.866Z" transform="translate(-128.562 -124.6)" fill="#606469"/>
        <path id="Path_309" data-name="Path 309" d="M171.278,127.779v.642h.041a1.6,1.6,0,0,1,.6-.561,1.711,1.711,0,0,1,.866-.23,1.62,1.62,0,0,1,1.305.527,2.088,2.088,0,0,1,.453,1.413V132.4h-.866v-2.691q0-1.278-1.136-1.278a1.058,1.058,0,0,0-.872.426,1.565,1.565,0,0,0-.338.994V132.4h-.866v-4.612h.818Z" transform="translate(-129.608 -125.581)" fill="#606469"/>
        <path id="Path_310" data-name="Path 310" d="M182.9,131.86a1.5,1.5,0,0,1-1.109-.385,1.473,1.473,0,0,1-.379-1.089v-2.421H180.6v-.791h.811V125.76h.866v1.413h1.129v.791h-1.129v2.353c0,.5.21.751.622.751a.943.943,0,0,0,.392-.074l.3.744A1.76,1.76,0,0,1,182.9,131.86Z" transform="translate(-132.891 -124.976)" fill="#606469"/>
        <path id="Path_311" data-name="Path 311" d="M186.909,124.7v2.13l-.041.642h.041a1.6,1.6,0,0,1,.6-.561,1.711,1.711,0,0,1,.866-.23,1.62,1.62,0,0,1,1.305.527,2.088,2.088,0,0,1,.453,1.413v2.827h-.866v-2.691q0-1.278-1.136-1.278a1.058,1.058,0,0,0-.872.426,1.565,1.565,0,0,0-.338.994v2.549h-.866v-6.742h.859Z" transform="translate(-134.655 -124.632)" fill="#606469"/>
        <path id="Path_312" data-name="Path 312" d="M195.553,132.54a2.208,2.208,0,0,1-1.7-.7,2.454,2.454,0,0,1-.656-1.758,2.524,2.524,0,0,1,.636-1.731,2.078,2.078,0,0,1,1.623-.724,2.131,2.131,0,0,1,1.643.669,2.525,2.525,0,0,1,.615,1.785l-.007.162h-3.645a1.581,1.581,0,0,0,.467,1.1,1.412,1.412,0,0,0,1,.406,1.249,1.249,0,0,0,1.265-.791l.771.318a2.065,2.065,0,0,1-.744.9A2.2,2.2,0,0,1,195.553,132.54Zm1.244-3.009a1.228,1.228,0,0,0-.365-.751,1.3,1.3,0,0,0-.994-.358,1.238,1.238,0,0,0-.832.3,1.55,1.55,0,0,0-.487.811H196.8Z" transform="translate(-136.97 -125.581)" fill="#606469"/>
      </g>
    </g>
    <g id="Group_198" data-name="Group 198" transform="translate(41.73 116.34)">
      <g id="Group_186" data-name="Group 186">
        <g id="Group_185" data-name="Group 185" clip-path="url(#clip-path)">
          <path id="Path_313" data-name="Path 313" d="M41.73,116.34H78.782v31.993H41.73Z" transform="translate(-41.73 -116.34)" fill="#eeedee"/>
        </g>
      </g>
      <g id="Group_188" data-name="Group 188">
        <g id="Group_187" data-name="Group 187" clip-path="url(#clip-path)">
          <path id="Path_315" data-name="Path 315" d="M70.513,121.32H62.094a1.684,1.684,0,1,0,0,3.368h8.419a1.684,1.684,0,1,0,0-3.368Z" transform="translate(-47.778 -117.952)" fill="#fff"/>
        </g>
      </g>
      <g id="Group_197" data-name="Group 197">
        <g id="Group_196" data-name="Group 196" clip-path="url(#clip-path)">
          <g id="Group_193" data-name="Group 193" transform="translate(2.522 13.471)">
            <g id="Group_189" data-name="Group 189" clip-path="url(#clip-path-4)">
              <path id="Path_317" data-name="Path 317" d="M49.22,136.26v19.631h7.161l6.3-10.908h16V136.26Zm0,0v19.631h7.161l6.3-10.908h16V136.26Z" transform="translate(-46.677 -136.26)" fill="#dc4637"/>
            </g>
            <g id="Group_190" data-name="Group 190" clip-path="url(#clip-path-4)">
              <path id="Path_318" data-name="Path 318" d="M45.46,169.7H60.689l7.067-7.067v-5.3h-12.6L45.46,140.7Zm0,0H60.689l7.067-7.067v-5.3h-12.6L45.46,140.7Z" transform="translate(-45.46 -137.697)" fill="#0f9d58"/>
            </g>
            <g id="Group_191" data-name="Group 191" clip-path="url(#clip-path-4)">
              <path id="Path_319" data-name="Path 319" d="M68.751,149.17l6.3,10.908L67.98,172.44H84.744V149.17Zm0,0,6.3,10.908L67.98,172.44H84.744V149.17Z" transform="translate(-52.751 -140.44)" fill="#ffce41"/>
            </g>
            <g id="Group_192" data-name="Group 192" clip-path="url(#clip-path-4)">
              <circle id="Ellipse_19" data-name="Ellipse 19" cx="7.27" cy="7.27" r="7.27" transform="translate(8.73 8.73)" fill="#f2f2f2"/>
              <circle id="Ellipse_20" data-name="Ellipse 20" cx="5.816" cy="5.816" r="5.816" transform="translate(10.184 10.184)" fill="#557ebf"/>
            </g>
          </g>
          <g id="Group_195" data-name="Group 195">
            <g id="Group_194" data-name="Group 194" clip-path="url(#clip-path)">
              <path id="Path_320" data-name="Path 320" d="M41.73,116.34H78.782v16H41.73Z" transform="translate(-41.73 -116.34)" fill="rgba(33,33,33,0.05)"/>
            </g>
          </g>
          <path id="Path_322" data-name="Path 322" d="M41.73,139.69H78.782v.21H41.73Z" transform="translate(-41.73 -123.9)" fill="rgba(33,33,33,0.02)"/>
          <path id="Path_323" data-name="Path 323" d="M41.73,140H78.782v.21H41.73Z" transform="translate(-41.73 -124)" fill="rgba(255,255,255,0.05)"/>
          <path id="Path_324" data-name="Path 324" d="M64.465,123.075H56.046a1.681,1.681,0,0,1-1.677-1.576.547.547,0,0,0-.007.108,1.68,1.68,0,0,0,1.684,1.684h8.419a1.68,1.68,0,0,0,1.684-1.684.619.619,0,0,0-.007-.108A1.681,1.681,0,0,1,64.465,123.075ZM41.73,116.34v.21H78.782v-.21Z" transform="translate(-41.73 -116.34)" fill="rgba(33,33,33,0.02)"/>
          <path id="Path_325" data-name="Path 325" d="M56.043,121.216h8.419a1.681,1.681,0,0,1,1.677,1.576c0-.034.007-.068.007-.108A1.68,1.68,0,0,0,64.462,121H56.043a1.68,1.68,0,0,0-1.684,1.684.619.619,0,0,0,.007.108A1.676,1.676,0,0,1,56.043,121.216Zm20.206,28.423h-32a2.538,2.538,0,0,1-2.529-2.529v.21a2.538,2.538,0,0,0,2.529,2.529H76.242a2.538,2.538,0,0,0,2.529-2.529v-.21A2.533,2.533,0,0,1,76.249,149.639Z" transform="translate(-41.727 -117.849)" fill="rgba(35,31,32,0.1)"/>
          <path id="Path_326" data-name="Path 326" d="M41.73,116.34v29.471a2.538,2.538,0,0,0,2.529,2.529H76.252a2.538,2.538,0,0,0,2.529-2.529V116.34Zm22.735,6.735H56.046a1.684,1.684,0,1,1,0-3.368h8.419a1.684,1.684,0,1,1,0,3.368Z" transform="translate(-41.73 -116.34)" fill="url(#radial-gradient)"/>
          <path id="Path_327" data-name="Path 327" d="M39.24,110.12H79.653v40.419H39.24Z" transform="translate(-40.924 -114.326)" fill="none"/>
        </g>
      </g>
    </g>
  </g>
</svg>
